<svg width="721" height="138" viewBox="0 0 721 138" version="1.1" xmlns="http://www.w3.org/2000/svg" xmlns:xlink="http://www.w3.org/1999/xlink">
<g id="Canvas" fill="none">
<g id="FINAL LOGO">
<g id="splashboards" transform="translate(132 0)">
<path d="M 2.53 104.53C 2.53 103.21 3.00667 101.853 3.96 100.46C 4.91333 98.9933 6.01333 98.26 7.26 98.26C 8.06667 98.26 9.05667 98.6633 10.23 99.47C 11.4767 100.277 13.09 101.12 15.07 102C 17.05 102.807 19.3967 103.21 22.11 103.21C 27.4633 103.21 30.14 101.633 30.14 98.48C 30.14 96.72 29.2233 95.3267 27.39 94.3C 25.63 93.2733 23.4667 92.43 20.9 91.77C 18.4067 91.11 15.8767 90.34 13.31 89.46C 10.7433 88.5067 8.54333 86.9667 6.71 84.84C 4.95 82.64 4.07 79.8533 4.07 76.48C 4.07 72.0067 5.64667 68.1567 8.8 64.93C 11.9533 61.7033 16.94 60.09 23.76 60.09C 28.3067 60.09 32.34 60.7867 35.86 62.18C 39.4533 63.5733 41.25 65.26 41.25 67.24C 41.25 68.4867 40.7367 69.9533 39.71 71.64C 38.7567 73.2533 37.5467 74.06 36.08 74.06C 35.4933 74.06 33.88 73.5467 31.24 72.52C 28.6733 71.42 26.2533 70.87 23.98 70.87C 21.4867 70.87 19.58 71.3833 18.26 72.41C 16.94 73.4367 16.28 74.5733 16.28 75.82C 16.28 77.0667 16.94 78.0933 18.26 78.9C 19.58 79.7067 21.1933 80.33 23.1 80.77C 25.08 81.21 27.2067 81.8333 29.48 82.64C 31.7533 83.3733 33.8433 84.2533 35.75 85.28C 37.73 86.3067 39.38 87.92 40.7 90.12C 42.02 92.2467 42.68 94.85 42.68 97.93C 42.68 102.917 40.8833 106.84 37.29 109.7C 33.77 112.56 28.82 113.99 22.44 113.99C 16.94 113.99 12.2467 113.037 8.36 111.13C 4.47333 109.223 2.53 107.023 2.53 104.53ZM 51.1569 132.8L 51.1569 65.15C 51.1569 63.83 51.7802 62.7667 53.0269 61.96C 54.3469 61.1533 55.9602 60.75 57.8669 60.75C 59.7735 60.75 61.3502 61.1533 62.5969 61.96C 63.8435 62.7667 64.4669 63.83 64.4669 65.15L 64.4669 68.45C 65.8602 66.1033 67.8402 64.1233 70.4069 62.51C 73.0469 60.8967 76.0169 60.09 79.3169 60.09C 84.8169 60.09 89.4735 62.29 93.2869 66.69C 97.1002 71.0167 99.0069 76.26 99.0069 82.42L 99.0069 91.44C 99.0069 97.38 97.0635 102.623 93.1769 107.17C 89.2902 111.717 84.8169 113.99 79.7569 113.99C 76.6035 113.99 73.6702 113.147 70.9569 111.46C 68.3169 109.7 66.4469 107.647 65.3469 105.3L 65.3469 132.8C 65.3469 133.973 64.6135 135 63.1469 135.88C 61.7535 136.833 60.0669 137.31 58.0869 137.31C 56.1069 137.31 54.4569 136.833 53.1369 135.88C 51.8169 135 51.1569 133.973 51.1569 132.8ZM 65.3469 93.42C 65.3469 94.8867 66.3369 96.61 68.3169 98.59C 70.2969 100.57 72.5335 101.56 75.0269 101.56C 77.5935 101.56 79.8669 100.533 81.8469 98.48C 83.8269 96.3533 84.8169 94.0067 84.8169 91.44L 84.8169 82.42C 84.8169 79.8533 83.8269 77.58 81.8469 75.6C 79.8669 73.5467 77.5202 72.52 74.8069 72.52C 72.3135 72.52 70.1135 73.4367 68.2069 75.27C 66.3002 77.1033 65.3469 79.4867 65.3469 82.42L 65.3469 93.42ZM 109.078 108.49L 109.078 34.68C 109.078 33.36 109.701 32.2967 110.948 31.49C 112.268 30.6833 113.991 30.28 116.118 30.28C 118.098 30.28 119.785 30.6833 121.178 31.49C 122.571 32.2967 123.268 33.36 123.268 34.68L 123.268 108.49C 123.268 109.59 122.535 110.617 121.068 111.57C 119.675 112.523 118.025 113 116.118 113C 114.138 113 112.451 112.56 111.058 111.68C 109.738 110.727 109.078 109.663 109.078 108.49ZM 132.186 99.36C 132.186 93.42 134.386 89.24 138.786 86.82C 143.186 84.4 149.529 83.19 157.816 83.19L 162.326 83.19L 162.326 81.76C 162.326 79.0467 161.519 76.7 159.906 74.72C 158.366 72.6667 155.946 71.64 152.646 71.64C 149.346 71.64 146.522 72.2267 144.176 73.4C 141.829 74.5 140.472 75.05 140.106 75.05C 138.639 75.05 137.466 74.3167 136.586 72.85C 135.706 71.3833 135.266 69.77 135.266 68.01C 135.266 65.8833 137.136 64.05 140.876 62.51C 144.689 60.8967 148.686 60.09 152.866 60.09C 160.859 60.09 166.799 62.1433 170.686 66.25C 174.572 70.2833 176.516 75.38 176.516 81.54L 176.516 108.49C 176.516 109.737 175.856 110.8 174.536 111.68C 173.216 112.56 171.566 113 169.586 113C 167.752 113 166.212 112.56 164.966 111.68C 163.792 110.8 163.206 109.737 163.206 108.49L 163.206 105.3C 158.146 111.093 152.572 113.99 146.486 113.99C 142.306 113.99 138.859 112.743 136.146 110.25C 133.506 107.757 132.186 104.127 132.186 99.36ZM 146.376 97.49C 146.376 99.47 146.889 100.973 147.916 102C 149.016 102.953 150.446 103.43 152.206 103.43C 154.552 103.43 156.826 102.33 159.026 100.13C 161.226 97.93 162.326 95.51 162.326 92.87L 162.326 90.56L 160.676 90.56C 156.202 90.56 152.682 91.0367 150.116 91.99C 147.622 92.87 146.376 94.7033 146.376 97.49ZM 184.073 104.53C 184.073 103.21 184.55 101.853 185.503 100.46C 186.456 98.9933 187.556 98.26 188.803 98.26C 189.61 98.26 190.6 98.6633 191.773 99.47C 193.02 100.277 194.633 101.12 196.613 102C 198.593 102.807 200.94 103.21 203.653 103.21C 209.006 103.21 211.683 101.633 211.683 98.48C 211.683 96.72 210.766 95.3267 208.933 94.3C 207.173 93.2733 205.01 92.43 202.443 91.77C 199.95 91.11 197.42 90.34 194.853 89.46C 192.286 88.5067 190.086 86.9667 188.253 84.84C 186.493 82.64 185.613 79.8533 185.613 76.48C 185.613 72.0067 187.19 68.1567 190.343 64.93C 193.496 61.7033 198.483 60.09 205.303 60.09C 209.85 60.09 213.883 60.7867 217.403 62.18C 220.996 63.5733 222.793 65.26 222.793 67.24C 222.793 68.4867 222.28 69.9533 221.253 71.64C 220.3 73.2533 219.09 74.06 217.623 74.06C 217.036 74.06 215.423 73.5467 212.783 72.52C 210.216 71.42 207.796 70.87 205.523 70.87C 203.03 70.87 201.123 71.3833 199.803 72.41C 198.483 73.4367 197.823 74.5733 197.823 75.82C 197.823 77.0667 198.483 78.0933 199.803 78.9C 201.123 79.7067 202.736 80.33 204.643 80.77C 206.623 81.21 208.75 81.8333 211.023 82.64C 213.296 83.3733 215.386 84.2533 217.293 85.28C 219.273 86.3067 220.923 87.92 222.243 90.12C 223.563 92.2467 224.223 94.85 224.223 97.93C 224.223 102.917 222.426 106.84 218.833 109.7C 215.313 112.56 210.363 113.99 203.983 113.99C 198.483 113.99 193.79 113.037 189.903 111.13C 186.016 109.223 184.073 107.023 184.073 104.53ZM 232.7 108.49L 232.7 34.68C 232.7 33.36 233.323 32.2967 234.57 31.49C 235.89 30.6833 237.613 30.28 239.74 30.28C 241.72 30.28 243.407 30.6833 244.8 31.49C 246.193 32.2967 246.89 33.36 246.89 34.68L 246.89 68.45C 247.99 66.1033 249.75 64.1233 252.17 62.51C 254.59 60.8967 257.45 60.09 260.75 60.09C 265.81 60.09 270.21 62.29 273.95 66.69C 277.763 71.09 279.67 76.3333 279.67 82.42L 279.67 108.49C 279.67 109.883 278.937 110.983 277.47 111.79C 276.077 112.597 274.427 113 272.52 113C 270.687 113 269.037 112.597 267.57 111.79C 266.177 110.983 265.48 109.883 265.48 108.49L 265.48 82.42C 265.48 79.9267 264.527 77.6533 262.62 75.6C 260.713 73.5467 258.477 72.52 255.91 72.52C 253.49 72.52 251.363 73.4367 249.53 75.27C 247.77 77.1033 246.89 79.4867 246.89 82.42L 246.89 108.49C 246.89 109.59 246.157 110.617 244.69 111.57C 243.297 112.523 241.647 113 239.74 113C 237.76 113 236.073 112.56 234.68 111.68C 233.36 110.727 232.7 109.663 232.7 108.49Z" fill="#3ABEA8"/>
<path d="M 290.385 108.49L 290.385 34.68C 290.385 33.36 291.009 32.2967 292.255 31.49C 293.575 30.6833 295.262 30.28 297.315 30.28C 299.369 30.28 301.092 30.6833 302.485 31.49C 303.879 32.2967 304.575 33.36 304.575 34.68L 304.575 68.45C 305.822 66.1033 307.655 64.1233 310.075 62.51C 312.569 60.8967 315.429 60.09 318.655 60.09C 324.009 60.09 328.592 62.29 332.405 66.69C 336.292 71.09 338.235 76.3333 338.235 82.42L 338.235 91.44C 338.235 97.38 336.292 102.623 332.405 107.17C 328.519 111.717 324.045 113.99 318.985 113.99C 315.685 113.99 312.605 113.147 309.745 111.46C 306.885 109.7 304.869 107.647 303.695 105.3L 303.695 108.49C 303.695 109.59 303.035 110.617 301.715 111.57C 300.469 112.523 299.002 113 297.315 113C 295.335 113 293.685 112.56 292.365 111.68C 291.045 110.727 290.385 109.663 290.385 108.49ZM 304.575 93.42C 304.575 94.8133 305.565 96.5367 307.545 98.59C 309.599 100.57 311.909 101.56 314.475 101.56C 317.042 101.56 319.279 100.533 321.185 98.48C 323.092 96.3533 324.045 94.0067 324.045 91.44L 324.045 82.42C 324.045 79.8533 323.092 77.58 321.185 75.6C 319.279 73.5467 317.005 72.52 314.365 72.52C 311.872 72.52 309.599 73.4367 307.545 75.27C 305.565 77.1033 304.575 79.4867 304.575 82.42L 304.575 93.42ZM 345.336 91.44L 345.336 82.42C 345.336 76.4067 347.683 71.2 352.376 66.8C 357.07 62.3267 362.68 60.09 369.206 60.09C 375.586 60.09 381.16 62.29 385.926 66.69C 390.693 71.09 393.076 76.3333 393.076 82.42L 393.076 91.44C 393.076 97.38 390.693 102.623 385.926 107.17C 381.16 111.717 375.586 113.99 369.206 113.99C 362.826 113.99 357.253 111.717 352.486 107.17C 347.72 102.623 345.336 97.38 345.336 91.44ZM 359.526 91.44C 359.526 94.08 360.48 96.4267 362.386 98.48C 364.293 100.533 366.566 101.56 369.206 101.56C 371.773 101.56 374.01 100.533 375.916 98.48C 377.896 96.4267 378.886 94.08 378.886 91.44L 378.886 82.42C 378.886 79.9267 377.896 77.6533 375.916 75.6C 374.01 73.5467 371.773 72.52 369.206 72.52C 366.566 72.52 364.293 73.5467 362.386 75.6C 360.48 77.58 359.526 79.8533 359.526 82.42L 359.526 91.44ZM 399.022 99.36C 399.022 93.42 401.222 89.24 405.622 86.82C 410.022 84.4 416.365 83.19 424.652 83.19L 429.162 83.19L 429.162 81.76C 429.162 79.0467 428.355 76.7 426.742 74.72C 425.202 72.6667 422.782 71.64 419.482 71.64C 416.182 71.64 413.358 72.2267 411.012 73.4C 408.665 74.5 407.308 75.05 406.942 75.05C 405.475 75.05 404.302 74.3167 403.422 72.85C 402.542 71.3833 402.102 69.77 402.102 68.01C 402.102 65.8833 403.972 64.05 407.712 62.51C 411.525 60.8967 415.522 60.09 419.702 60.09C 427.695 60.09 433.635 62.1433 437.522 66.25C 441.408 70.2833 443.352 75.38 443.352 81.54L 443.352 108.49C 443.352 109.737 442.692 110.8 441.372 111.68C 440.052 112.56 438.402 113 436.422 113C 434.588 113 433.048 112.56 431.802 111.68C 430.628 110.8 430.042 109.737 430.042 108.49L 430.042 105.3C 424.982 111.093 419.408 113.99 413.322 113.99C 409.142 113.99 405.695 112.743 402.982 110.25C 400.342 107.757 399.022 104.127 399.022 99.36ZM 413.212 97.49C 413.212 99.47 413.725 100.973 414.752 102C 415.852 102.953 417.282 103.43 419.042 103.43C 421.388 103.43 423.662 102.33 425.862 100.13C 428.062 97.93 429.162 95.51 429.162 92.87L 429.162 90.56L 427.512 90.56C 423.038 90.56 419.518 91.0367 416.952 91.99C 414.458 92.87 413.212 94.7033 413.212 97.49ZM 453.879 108.49L 453.879 65.15C 453.879 63.83 454.502 62.7667 455.749 61.96C 457.069 61.1533 458.756 60.75 460.809 60.75C 462.642 60.75 464.146 61.1533 465.319 61.96C 466.566 62.7667 467.189 63.83 467.189 65.15L 467.189 69.66C 468.362 67.0933 470.196 64.8567 472.689 62.95C 475.182 61.0433 477.859 60.09 480.719 60.09L 484.129 60.09C 485.449 60.09 486.622 60.7133 487.649 61.96C 488.749 63.2067 489.299 64.6367 489.299 66.25C 489.299 67.9367 488.749 69.4033 487.649 70.65C 486.622 71.8967 485.449 72.52 484.129 72.52L 480.719 72.52C 477.346 72.52 474.376 74.0233 471.809 77.03C 469.316 80.0367 468.069 83.96 468.069 88.8L 468.069 108.49C 468.069 109.59 467.336 110.617 465.869 111.57C 464.402 112.523 462.716 113 460.809 113C 458.829 113 457.179 112.56 455.859 111.68C 454.539 110.727 453.879 109.663 453.879 108.49ZM 492.4 91.44L 492.4 82.42C 492.4 76.3333 494.306 71.09 498.12 66.69C 502.006 62.29 506.626 60.09 511.98 60.09C 515.206 60.09 518.03 60.8967 520.45 62.51C 522.943 64.1233 524.85 66.1033 526.17 68.45L 526.17 34.68C 526.17 33.36 526.83 32.2967 528.15 31.49C 529.543 30.6833 531.266 30.28 533.32 30.28C 535.373 30.28 537.06 30.6833 538.38 31.49C 539.7 32.2967 540.36 33.36 540.36 34.68L 540.36 108.49C 540.36 109.663 539.663 110.727 538.27 111.68C 536.95 112.56 535.3 113 533.32 113C 531.633 113 530.13 112.523 528.81 111.57C 527.563 110.617 526.94 109.59 526.94 108.49L 526.94 105.3C 525.766 107.647 523.75 109.7 520.89 111.46C 518.103 113.147 515.023 113.99 511.65 113.99C 506.59 113.99 502.116 111.717 498.23 107.17C 494.343 102.623 492.4 97.38 492.4 91.44ZM 506.59 91.44C 506.59 94.0067 507.543 96.3533 509.45 98.48C 511.356 100.533 513.593 101.56 516.16 101.56C 518.726 101.56 521.036 100.57 523.09 98.59C 525.143 96.5367 526.17 94.8133 526.17 93.42L 526.17 82.42C 526.17 79.4867 525.143 77.1033 523.09 75.27C 521.11 73.4367 518.836 72.52 516.27 72.52C 513.63 72.52 511.356 73.5467 509.45 75.6C 507.543 77.58 506.59 79.8533 506.59 82.42L 506.59 91.44ZM 548.448 104.53C 548.448 103.21 548.925 101.853 549.878 100.46C 550.831 98.9933 551.931 98.26 553.178 98.26C 553.985 98.26 554.975 98.6633 556.148 99.47C 557.395 100.277 559.008 101.12 560.988 102C 562.968 102.807 565.315 103.21 568.028 103.21C 573.381 103.21 576.058 101.633 576.058 98.48C 576.058 96.72 575.141 95.3267 573.308 94.3C 571.548 93.2733 569.385 92.43 566.818 91.77C 564.325 91.11 561.795 90.34 559.228 89.46C 556.661 88.5067 554.461 86.9667 552.628 84.84C 550.868 82.64 549.988 79.8533 549.988 76.48C 549.988 72.0067 551.565 68.1567 554.718 64.93C 557.871 61.7033 562.858 60.09 569.678 60.09C 574.225 60.09 578.258 60.7867 581.778 62.18C 585.371 63.5733 587.168 65.26 587.168 67.24C 587.168 68.4867 586.655 69.9533 585.628 71.64C 584.675 73.2533 583.465 74.06 581.998 74.06C 581.411 74.06 579.798 73.5467 577.158 72.52C 574.591 71.42 572.171 70.87 569.898 70.87C 567.405 70.87 565.498 71.3833 564.178 72.41C 562.858 73.4367 562.198 74.5733 562.198 75.82C 562.198 77.0667 562.858 78.0933 564.178 78.9C 565.498 79.7067 567.111 80.33 569.018 80.77C 570.998 81.21 573.125 81.8333 575.398 82.64C 577.671 83.3733 579.761 84.2533 581.668 85.28C 583.648 86.3067 585.298 87.92 586.618 90.12C 587.938 92.2467 588.598 94.85 588.598 97.93C 588.598 102.917 586.801 106.84 583.208 109.7C 579.688 112.56 574.738 113.99 568.358 113.99C 562.858 113.99 558.165 113.037 554.278 111.13C 550.391 109.223 548.448 107.023 548.448 104.53Z" fill="#FFBA00"/>
</g>
<g id="Group 8">
<g id="Piece 1.10">
<path d="M 28.5518 26.8696L 0 26.8696L 0 134.234L 4.73368 134.234C 19.167 133.712 25.836 128.394 27.4248 125.539C 30.5555 122.515 37.0422 116.239 37.9439 115.332C 39.0709 114.198 39.8223 113.82 40.5737 113.064C 41.325 112.308 48.0873 108.527 45.8332 105.503C 44.0299 103.083 40.0727 108.275 38.3196 111.174C 34.2325 117.472 24.9736 125.126 24.2903 122.947C 23.6814 121.006 23.2923 120.247 19.1598 123.271C 15.8538 125.691 10.7695 125.791 8.64069 125.539L 8.64069 35.1867L 28.9275 35.1867C 29.0494 35.1867 30.7145 34.7566 36.3497 33.0593C 36.6593 32.966 36.9663 32.8386 37.2532 32.6892C 43.8928 29.2321 42.4599 31.422 42.8277 32.1623C 43.2034 32.9184 43.5791 33.6745 48.8387 31.4062C 53.0463 29.5916 54.0982 32.1623 54.0982 33.6745C 57.0217 38.6757 65.8698 31.4432 70.269 26.8696C 70.3923 26.7414 70.5121 26.6153 70.6282 26.4916C 70.8035 26.139 74.1377 22.8559 77.8308 19.2803C 80.4716 16.7236 83.2958 14.0173 85.2798 12.1259C 85.8809 11.2186 88.7862 8.47152 90.1637 7.21137C 91.2907 6.58129 93.7702 4.9431 94.6719 3.43092C 95.7989 1.5407 95.7989 0.784588 93.9205 0.0284988C 92.4178 -0.576372 84.278 8.59751 80.3959 13.2601C 79.6322 14.3361 77.4709 16.7598 75.0565 19.2803C 72.7205 21.719 70.1476 24.2483 68.3741 25.7355C 67.7809 26.233 67.2657 26.5996 66.8149 26.8696C 65.5528 27.6258 64.7952 27.6258 64.2416 27.6258C 63.5852 27.6258 62.0687 27.6258 61.6958 26.8696C 61.6419 26.7602 61.6118 26.635 61.6118 26.4916C 61.6118 25.3575 61.9875 25.3575 63.1146 23.8453C 64.2416 22.3331 64.2416 21.5771 64.2416 20.4429C 64.2416 19.3088 59.3578 21.577 58.6064 22.3331C 57.855 23.0892 52.2198 26.4916 50.3414 26.8696C 49.9432 26.9498 49.6295 26.945 49.3715 26.8696C 48.4123 26.5896 48.2241 25.3348 47.3359 23.8453C 46.4343 22.3331 44.4557 22.7111 43.5791 23.0892C 41.7007 23.7193 37.4179 25.2062 35.3141 26.1136C 34.2968 26.5523 33.0044 26.7729 31.7849 26.8696C 30.4824 26.9729 29.2633 26.9347 28.5518 26.8696Z" fill="#3ABEA8"/>
<path d="M 100.622 35.9427L 96.8649 35.9427L 95.7379 35.1867C 95.4874 35.0606 94.9865 34.355 94.9865 32.5403C 94.9865 30.7257 90.2279 31.7843 87.8486 32.5403C 86.972 32.9184 84.9934 33.2965 84.0918 31.7843C 83.2149 30.3136 86.2041 27.6987 88.8128 25.0079C 89.557 24.2403 90.2703 23.4664 90.854 22.7112C 92.8612 20.1143 94.4307 17.9579 95.7295 17.4186C 96.1323 17.2513 96.5092 17.2396 96.8649 17.4186C 98.1412 18.0607 92.914 22.5203 90.619 25.0079C 90.2118 25.4494 89.8969 25.8287 89.727 26.1136C 88.5999 28.0038 89.727 28.7599 90.854 28.7599C 91.7497 28.7599 94.3061 28.5211 97.9578 25.0079C 98.9011 24.1003 99.9176 22.9741 100.997 21.577C 102.148 20.0885 103.137 18.817 103.995 17.7468C 104.085 17.6352 104.173 17.5258 104.259 17.4186C 107.143 13.8529 108.498 12.6866 109.638 13.2601C 110.467 13.6771 109.81 15.3593 108.298 17.4186C 107.068 19.0927 105.273 21.016 103.252 22.7112C 102.113 23.6657 101.644 24.4194 101.597 25.0079C 101.496 26.2841 103.383 26.7835 104.754 26.8697L 109.638 26.8697L 109.699 71.4505L 109.699 134.234L 58.2307 134.234C 57.4793 133.73 55.5258 132.344 53.7225 130.832C 51.9193 129.32 48.7134 130.958 47.3359 131.966C 43.5791 133.1 38.6952 129.925 44.7062 121.759C 50.4666 115.962 62.1378 104.142 62.7389 103.235C 63.4902 102.101 67.6227 94.9177 69.8768 96.8079C 72.1309 98.6981 65.7443 103.613 64.6173 104.369C 63.4902 105.125 49.59 117.222 49.59 119.869C 49.59 122.515 52.5955 124.783 55.9766 121.003C 59.3577 117.222 61.6118 113.442 63.4902 114.954C 65.3686 116.466 58.2307 120.625 58.2307 122.137C 58.2307 123.649 58.2307 125.917 61.9875 125.917L 100.683 125.917L 100.683 79.3894L 100.622 35.9427Z" fill="#3ABEA8"/>
</g>
<path id="Piece 1.11" d="M 58.7409 22.8216L 54.9841 22.8216L 53.8571 22.0655C 53.6066 21.9395 53.1057 21.2338 53.1057 19.4192C 53.1057 17.6046 48.3471 18.6631 45.9678 19.4192C 45.0912 19.7973 43.1126 20.1753 42.2109 18.6632C 41.3341 17.1925 44.3232 14.5776 46.932 11.8868C 47.6762 11.1191 48.3895 10.3453 48.9732 9.5901C 50.9804 6.99323 52.5498 4.83682 53.8486 4.29747C 54.2515 4.13017 54.6283 4.11847 54.9841 4.29747C 56.2604 4.93961 51.0332 9.39923 48.7382 11.8868C 48.3309 12.3282 48.016 12.7076 47.8462 12.9924C 46.7191 14.8827 47.8462 15.6388 48.9732 15.6388C 49.8689 15.6388 52.4253 15.4 56.0769 11.8868C 57.0203 10.9792 58.0368 9.85299 59.1166 8.45592C 60.2672 6.96737 61.2559 5.6959 62.1143 4.62568C 62.2038 4.5141 62.2919 4.4047 62.3786 4.29747C 65.2617 0.731759 66.6176 -0.434506 67.7573 0.138943C 68.5862 0.555988 67.9292 2.23823 66.4168 4.29747C 65.1872 5.97158 63.3923 7.89487 61.3707 9.5901C 60.2325 10.5446 59.7628 11.2983 59.7161 11.8868C 59.6148 13.1629 61.5022 13.6624 62.8734 13.7486L 67.7573 13.7486L 67.8183 58.3293L 67.8183 121.113L 16.3499 121.113C 15.5985 120.609 13.645 119.223 11.8417 117.711C 10.0384 116.199 6.83261 117.837 5.45511 118.845C 1.69828 119.979 -3.18558 116.803 2.82533 108.638C 8.58579 102.841 20.257 91.0208 20.858 90.1135C 21.6094 88.9794 25.7419 81.7965 27.996 83.6868C 30.2501 85.577 23.8635 90.4916 22.7365 91.2477C 21.6094 92.0038 7.70918 104.101 7.70918 106.748C 7.70918 109.394 10.7146 111.662 14.0958 107.882C 17.4769 104.101 19.731 100.321 21.6094 101.833C 23.4878 103.345 16.3499 107.504 16.3499 109.016C 16.3499 110.528 16.3499 112.796 20.1067 112.796L 58.8019 112.796L 58.8019 66.2683L 58.7409 22.8216Z" transform="translate(41.8811 13.1189)" fill="#FFBA00"/>
</g>
</g>
</g>
</svg>
