<svg width="587" height="108" viewBox="0 0 587 108" fill="none" xmlns="http://www.w3.org/2000/svg">
<path d="M2.53 104.53C2.53 103.21 3.00667 101.853 3.96 100.46C4.91333 98.9933 6.01333 98.26 7.26 98.26C8.06667 98.26 9.05667 98.6633 10.23 99.47C11.4767 100.277 13.09 101.12 15.07 102C17.05 102.807 19.3967 103.21 22.11 103.21C27.4633 103.21 30.14 101.633 30.14 98.48C30.14 96.72 29.2233 95.3267 27.39 94.3C25.63 93.2733 23.4667 92.43 20.9 91.77C18.4067 91.11 15.8767 90.34 13.31 89.46C10.7433 88.5067 8.54333 86.9667 6.71 84.84C4.95 82.64 4.07 79.8533 4.07 76.48C4.07 72.0067 5.64667 68.1567 8.8 64.93C11.9533 61.7033 16.94 60.09 23.76 60.09C28.3067 60.09 32.34 60.7867 35.86 62.18C39.4533 63.5733 41.25 65.26 41.25 67.24C41.25 68.4867 40.7367 69.9533 39.71 71.64C38.7567 73.2533 37.5467 74.06 36.08 74.06C35.4933 74.06 33.88 73.5467 31.24 72.52C28.6733 71.42 26.2533 70.87 23.98 70.87C21.4867 70.87 19.58 71.3833 18.26 72.41C16.94 73.4367 16.28 74.5733 16.28 75.82C16.28 77.0667 16.94 78.0933 18.26 78.9C19.58 79.7067 21.1933 80.33 23.1 80.77C25.08 81.21 27.2067 81.8333 29.48 82.64C31.7533 83.3733 33.8433 84.2533 35.75 85.28C37.73 86.3067 39.38 87.92 40.7 90.12C42.02 92.2467 42.68 94.85 42.68 97.93C42.68 102.917 40.8833 106.84 37.29 109.7C33.77 112.56 28.82 113.99 22.44 113.99C16.94 113.99 12.2467 113.037 8.36 111.13C4.47333 109.223 2.53 107.023 2.53 104.53ZM51.1569 132.8V65.15C51.1569 63.83 51.7802 62.7667 53.0269 61.96C54.3469 61.1533 55.9602 60.75 57.8669 60.75C59.7735 60.75 61.3502 61.1533 62.5969 61.96C63.8435 62.7667 64.4669 63.83 64.4669 65.15V68.45C65.8602 66.1033 67.8402 64.1233 70.4069 62.51C73.0469 60.8967 76.0169 60.09 79.3169 60.09C84.8169 60.09 89.4735 62.29 93.2869 66.69C97.1002 71.0167 99.0069 76.26 99.0069 82.42V91.44C99.0069 97.38 97.0635 102.623 93.1769 107.17C89.2902 111.717 84.8169 113.99 79.7569 113.99C76.6035 113.99 73.6702 113.147 70.9569 111.46C68.3169 109.7 66.4469 107.647 65.3469 105.3V132.8C65.3469 133.973 64.6135 135 63.1469 135.88C61.7535 136.833 60.0669 137.31 58.0869 137.31C56.1069 137.31 54.4569 136.833 53.1369 135.88C51.8169 135 51.1569 133.973 51.1569 132.8ZM65.3469 93.42C65.3469 94.8867 66.3369 96.61 68.3169 98.59C70.2969 100.57 72.5335 101.56 75.0269 101.56C77.5935 101.56 79.8669 100.533 81.8469 98.48C83.8269 96.3533 84.8169 94.0067 84.8169 91.44V82.42C84.8169 79.8533 83.8269 77.58 81.8469 75.6C79.8669 73.5467 77.5202 72.52 74.8069 72.52C72.3135 72.52 70.1135 73.4367 68.2069 75.27C66.3002 77.1033 65.3469 79.4867 65.3469 82.42V93.42ZM109.078 108.49V34.68C109.078 33.36 109.701 32.2967 110.948 31.49C112.268 30.6833 113.991 30.28 116.118 30.28C118.098 30.28 119.785 30.6833 121.178 31.49C122.571 32.2967 123.268 33.36 123.268 34.68V108.49C123.268 109.59 122.535 110.617 121.068 111.57C119.675 112.523 118.025 113 116.118 113C114.138 113 112.451 112.56 111.058 111.68C109.738 110.727 109.078 109.663 109.078 108.49ZM132.186 99.36C132.186 93.42 134.386 89.24 138.786 86.82C143.186 84.4 149.529 83.19 157.816 83.19H162.326V81.76C162.326 79.0467 161.519 76.7 159.906 74.72C158.366 72.6667 155.946 71.64 152.646 71.64C149.346 71.64 146.522 72.2267 144.176 73.4C141.829 74.5 140.472 75.05 140.106 75.05C138.639 75.05 137.466 74.3167 136.586 72.85C135.706 71.3833 135.266 69.77 135.266 68.01C135.266 65.8833 137.136 64.05 140.876 62.51C144.689 60.8967 148.686 60.09 152.866 60.09C160.859 60.09 166.799 62.1433 170.686 66.25C174.572 70.2833 176.516 75.38 176.516 81.54V108.49C176.516 109.737 175.856 110.8 174.536 111.68C173.216 112.56 171.566 113 169.586 113C167.752 113 166.212 112.56 164.966 111.68C163.792 110.8 163.206 109.737 163.206 108.49V105.3C158.146 111.093 152.572 113.99 146.486 113.99C142.306 113.99 138.859 112.743 136.146 110.25C133.506 107.757 132.186 104.127 132.186 99.36ZM146.376 97.49C146.376 99.47 146.889 100.973 147.916 102C149.016 102.953 150.446 103.43 152.206 103.43C154.552 103.43 156.826 102.33 159.026 100.13C161.226 97.93 162.326 95.51 162.326 92.87V90.56H160.676C156.202 90.56 152.682 91.0367 150.116 91.99C147.622 92.87 146.376 94.7033 146.376 97.49ZM184.073 104.53C184.073 103.21 184.55 101.853 185.503 100.46C186.456 98.9933 187.556 98.26 188.803 98.26C189.61 98.26 190.6 98.6633 191.773 99.47C193.02 100.277 194.633 101.12 196.613 102C198.593 102.807 200.94 103.21 203.653 103.21C209.006 103.21 211.683 101.633 211.683 98.48C211.683 96.72 210.766 95.3267 208.933 94.3C207.173 93.2733 205.01 92.43 202.443 91.77C199.95 91.11 197.42 90.34 194.853 89.46C192.286 88.5067 190.086 86.9667 188.253 84.84C186.493 82.64 185.613 79.8533 185.613 76.48C185.613 72.0067 187.19 68.1567 190.343 64.93C193.496 61.7033 198.483 60.09 205.303 60.09C209.85 60.09 213.883 60.7867 217.403 62.18C220.996 63.5733 222.793 65.26 222.793 67.24C222.793 68.4867 222.28 69.9533 221.253 71.64C220.3 73.2533 219.09 74.06 217.623 74.06C217.036 74.06 215.423 73.5467 212.783 72.52C210.216 71.42 207.796 70.87 205.523 70.87C203.03 70.87 201.123 71.3833 199.803 72.41C198.483 73.4367 197.823 74.5733 197.823 75.82C197.823 77.0667 198.483 78.0933 199.803 78.9C201.123 79.7067 202.736 80.33 204.643 80.77C206.623 81.21 208.75 81.8333 211.023 82.64C213.296 83.3733 215.386 84.2533 217.293 85.28C219.273 86.3067 220.923 87.92 222.243 90.12C223.563 92.2467 224.223 94.85 224.223 97.93C224.223 102.917 222.426 106.84 218.833 109.7C215.313 112.56 210.363 113.99 203.983 113.99C198.483 113.99 193.79 113.037 189.903 111.13C186.016 109.223 184.073 107.023 184.073 104.53ZM232.7 108.49V34.68C232.7 33.36 233.323 32.2967 234.57 31.49C235.89 30.6833 237.613 30.28 239.74 30.28C241.72 30.28 243.407 30.6833 244.8 31.49C246.193 32.2967 246.89 33.36 246.89 34.68V68.45C247.99 66.1033 249.75 64.1233 252.17 62.51C254.59 60.8967 257.45 60.09 260.75 60.09C265.81 60.09 270.21 62.29 273.95 66.69C277.763 71.09 279.67 76.3333 279.67 82.42V108.49C279.67 109.883 278.937 110.983 277.47 111.79C276.077 112.597 274.427 113 272.52 113C270.687 113 269.037 112.597 267.57 111.79C266.177 110.983 265.48 109.883 265.48 108.49V82.42C265.48 79.9267 264.527 77.6533 262.62 75.6C260.713 73.5467 258.477 72.52 255.91 72.52C253.49 72.52 251.363 73.4367 249.53 75.27C247.77 77.1033 246.89 79.4867 246.89 82.42V108.49C246.89 109.59 246.157 110.617 244.69 111.57C243.297 112.523 241.647 113 239.74 113C237.76 113 236.073 112.56 234.68 111.68C233.36 110.727 232.7 109.663 232.7 108.49Z" transform="translate(-2 -30)" fill="#3ABEA8"/>
<path d="M290.385 108.49V34.68C290.385 33.36 291.009 32.2967 292.255 31.49C293.575 30.6833 295.262 30.28 297.315 30.28C299.369 30.28 301.092 30.6833 302.485 31.49C303.879 32.2967 304.575 33.36 304.575 34.68V68.45C305.822 66.1033 307.655 64.1233 310.075 62.51C312.569 60.8967 315.429 60.09 318.655 60.09C324.009 60.09 328.592 62.29 332.405 66.69C336.292 71.09 338.235 76.3333 338.235 82.42V91.44C338.235 97.38 336.292 102.623 332.405 107.17C328.519 111.717 324.045 113.99 318.985 113.99C315.685 113.99 312.605 113.147 309.745 111.46C306.885 109.7 304.869 107.647 303.695 105.3V108.49C303.695 109.59 303.035 110.617 301.715 111.57C300.469 112.523 299.002 113 297.315 113C295.335 113 293.685 112.56 292.365 111.68C291.045 110.727 290.385 109.663 290.385 108.49ZM304.575 93.42C304.575 94.8133 305.565 96.5367 307.545 98.59C309.599 100.57 311.909 101.56 314.475 101.56C317.042 101.56 319.279 100.533 321.185 98.48C323.092 96.3533 324.045 94.0067 324.045 91.44V82.42C324.045 79.8533 323.092 77.58 321.185 75.6C319.279 73.5467 317.005 72.52 314.365 72.52C311.872 72.52 309.599 73.4367 307.545 75.27C305.565 77.1033 304.575 79.4867 304.575 82.42V93.42ZM345.336 91.44V82.42C345.336 76.4067 347.683 71.2 352.376 66.8C357.07 62.3267 362.68 60.09 369.206 60.09C375.586 60.09 381.16 62.29 385.926 66.69C390.693 71.09 393.076 76.3333 393.076 82.42V91.44C393.076 97.38 390.693 102.623 385.926 107.17C381.16 111.717 375.586 113.99 369.206 113.99C362.826 113.99 357.253 111.717 352.486 107.17C347.72 102.623 345.336 97.38 345.336 91.44ZM359.526 91.44C359.526 94.08 360.48 96.4267 362.386 98.48C364.293 100.533 366.566 101.56 369.206 101.56C371.773 101.56 374.01 100.533 375.916 98.48C377.896 96.4267 378.886 94.08 378.886 91.44V82.42C378.886 79.9267 377.896 77.6533 375.916 75.6C374.01 73.5467 371.773 72.52 369.206 72.52C366.566 72.52 364.293 73.5467 362.386 75.6C360.48 77.58 359.526 79.8533 359.526 82.42V91.44ZM399.022 99.36C399.022 93.42 401.222 89.24 405.622 86.82C410.022 84.4 416.365 83.19 424.652 83.19H429.162V81.76C429.162 79.0467 428.355 76.7 426.742 74.72C425.202 72.6667 422.782 71.64 419.482 71.64C416.182 71.64 413.358 72.2267 411.012 73.4C408.665 74.5 407.308 75.05 406.942 75.05C405.475 75.05 404.302 74.3167 403.422 72.85C402.542 71.3833 402.102 69.77 402.102 68.01C402.102 65.8833 403.972 64.05 407.712 62.51C411.525 60.8967 415.522 60.09 419.702 60.09C427.695 60.09 433.635 62.1433 437.522 66.25C441.408 70.2833 443.352 75.38 443.352 81.54V108.49C443.352 109.737 442.692 110.8 441.372 111.68C440.052 112.56 438.402 113 436.422 113C434.588 113 433.048 112.56 431.802 111.68C430.628 110.8 430.042 109.737 430.042 108.49V105.3C424.982 111.093 419.408 113.99 413.322 113.99C409.142 113.99 405.695 112.743 402.982 110.25C400.342 107.757 399.022 104.127 399.022 99.36ZM413.212 97.49C413.212 99.47 413.725 100.973 414.752 102C415.852 102.953 417.282 103.43 419.042 103.43C421.388 103.43 423.662 102.33 425.862 100.13C428.062 97.93 429.162 95.51 429.162 92.87V90.56H427.512C423.038 90.56 419.518 91.0367 416.952 91.99C414.458 92.87 413.212 94.7033 413.212 97.49ZM453.879 108.49V65.15C453.879 63.83 454.502 62.7667 455.749 61.96C457.069 61.1533 458.756 60.75 460.809 60.75C462.642 60.75 464.146 61.1533 465.319 61.96C466.566 62.7667 467.189 63.83 467.189 65.15V69.66C468.362 67.0933 470.196 64.8567 472.689 62.95C475.182 61.0433 477.859 60.09 480.719 60.09H484.129C485.449 60.09 486.622 60.7133 487.649 61.96C488.749 63.2067 489.299 64.6367 489.299 66.25C489.299 67.9367 488.749 69.4033 487.649 70.65C486.622 71.8967 485.449 72.52 484.129 72.52H480.719C477.346 72.52 474.376 74.0233 471.809 77.03C469.316 80.0367 468.069 83.96 468.069 88.8V108.49C468.069 109.59 467.336 110.617 465.869 111.57C464.402 112.523 462.716 113 460.809 113C458.829 113 457.179 112.56 455.859 111.68C454.539 110.727 453.879 109.663 453.879 108.49ZM492.4 91.44V82.42C492.4 76.3333 494.306 71.09 498.12 66.69C502.006 62.29 506.626 60.09 511.98 60.09C515.206 60.09 518.03 60.8967 520.45 62.51C522.943 64.1233 524.85 66.1033 526.17 68.45V34.68C526.17 33.36 526.83 32.2967 528.15 31.49C529.543 30.6833 531.266 30.28 533.32 30.28C535.373 30.28 537.06 30.6833 538.38 31.49C539.7 32.2967 540.36 33.36 540.36 34.68V108.49C540.36 109.663 539.663 110.727 538.27 111.68C536.95 112.56 535.3 113 533.32 113C531.633 113 530.13 112.523 528.81 111.57C527.563 110.617 526.94 109.59 526.94 108.49V105.3C525.766 107.647 523.75 109.7 520.89 111.46C518.103 113.147 515.023 113.99 511.65 113.99C506.59 113.99 502.116 111.717 498.23 107.17C494.343 102.623 492.4 97.38 492.4 91.44ZM506.59 91.44C506.59 94.0067 507.543 96.3533 509.45 98.48C511.356 100.533 513.593 101.56 516.16 101.56C518.726 101.56 521.036 100.57 523.09 98.59C525.143 96.5367 526.17 94.8133 526.17 93.42V82.42C526.17 79.4867 525.143 77.1033 523.09 75.27C521.11 73.4367 518.836 72.52 516.27 72.52C513.63 72.52 511.356 73.5467 509.45 75.6C507.543 77.58 506.59 79.8533 506.59 82.42V91.44ZM548.448 104.53C548.448 103.21 548.925 101.853 549.878 100.46C550.831 98.9933 551.931 98.26 553.178 98.26C553.985 98.26 554.975 98.6633 556.148 99.47C557.395 100.277 559.008 101.12 560.988 102C562.968 102.807 565.315 103.21 568.028 103.21C573.381 103.21 576.058 101.633 576.058 98.48C576.058 96.72 575.141 95.3267 573.308 94.3C571.548 93.2733 569.385 92.43 566.818 91.77C564.325 91.11 561.795 90.34 559.228 89.46C556.661 88.5067 554.461 86.9667 552.628 84.84C550.868 82.64 549.988 79.8533 549.988 76.48C549.988 72.0067 551.565 68.1567 554.718 64.93C557.871 61.7033 562.858 60.09 569.678 60.09C574.225 60.09 578.258 60.7867 581.778 62.18C585.371 63.5733 587.168 65.26 587.168 67.24C587.168 68.4867 586.655 69.9533 585.628 71.64C584.675 73.2533 583.465 74.06 581.998 74.06C581.411 74.06 579.798 73.5467 577.158 72.52C574.591 71.42 572.171 70.87 569.898 70.87C567.405 70.87 565.498 71.3833 564.178 72.41C562.858 73.4367 562.198 74.5733 562.198 75.82C562.198 77.0667 562.858 78.0933 564.178 78.9C565.498 79.7067 567.111 80.33 569.018 80.77C570.998 81.21 573.125 81.8333 575.398 82.64C577.671 83.3733 579.761 84.2533 581.668 85.28C583.648 86.3067 585.298 87.92 586.618 90.12C587.938 92.2467 588.598 94.85 588.598 97.93C588.598 102.917 586.801 106.84 583.208 109.7C579.688 112.56 574.738 113.99 568.358 113.99C562.858 113.99 558.165 113.037 554.278 111.13C550.391 109.223 548.448 107.023 548.448 104.53Z" transform="translate(-2 -30)" fill="#FFBA00"/>
</svg>
